<svg width="17" height="15" viewBox="0 0 17 15" fill="none" xmlns="http://www.w3.org/2000/svg">
<g clip-path="url(#clip0_3_152)" filter="url(#filter0_d_3_152)">
<path d="M12.1032 1.62812C11.8285 1.74529 11.5371 1.82219 11.2388 1.85628C11.5495 1.67696 11.7881 1.39299 11.9005 1.05464C11.6051 1.22342 11.2819 1.34234 10.9449 1.40626C10.6703 1.12466 10.2792 0.948669 9.84635 0.948669C9.01521 0.948669 8.34135 1.59744 8.34135 2.39763C8.34135 2.51121 8.35467 2.62178 8.38032 2.72786C7.12957 2.66742 6.02066 2.09056 5.27837 1.21391C5.14886 1.42791 5.07464 1.67685 5.07464 1.94236C5.07464 2.44508 5.34035 2.88857 5.74415 3.14843C5.50516 3.14122 5.27143 3.07907 5.06247 2.96717C5.06238 2.97324 5.06238 2.97931 5.06238 2.9854C5.06238 3.68745 5.58113 4.27311 6.26958 4.40622C6.04796 4.46425 5.8155 4.47274 5.58996 4.43105C5.78145 5.00672 6.33726 5.42562 6.99578 5.43735C6.48073 5.82596 5.8318 6.05762 5.12674 6.05762C5.00524 6.05762 4.88547 6.05075 4.76773 6.03737C5.43374 6.4485 6.22479 6.68838 7.07467 6.68838C9.84285 6.68838 11.3566 4.48043 11.3566 2.56567C11.3566 2.50282 11.3551 2.44033 11.3522 2.3782C11.6468 2.17313 11.9011 1.91913 12.1032 1.62812Z" fill="white"/>
</g>
<defs>
<filter id="filter0_d_3_152" x="0.780685" y="0.925903" width="15.4135" height="13.7661" filterUnits="userSpaceOnUse" color-interpolation-filters="sRGB">
<feFlood flood-opacity="0" result="BackgroundImageFix"/>
<feColorMatrix in="SourceAlpha" type="matrix" values="0 0 0 0 0 0 0 0 0 0 0 0 0 0 0 0 0 0 127 0" result="hardAlpha"/>
<feOffset dy="4"/>
<feGaussianBlur stdDeviation="2"/>
<feComposite in2="hardAlpha" operator="out"/>
<feColorMatrix type="matrix" values="0 0 0 0 0 0 0 0 0 0 0 0 0 0 0 0 0 0 0.25 0"/>
<feBlend mode="normal" in2="BackgroundImageFix" result="effect1_dropShadow_3_152"/>
<feBlend mode="normal" in="SourceGraphic" in2="effect1_dropShadow_3_152" result="shape"/>
</filter>
<clipPath id="clip0_3_152">
<rect width="7.41348" height="5.76604" fill="white" transform="translate(4.78069 0.925903)"/>
</clipPath>
</defs>
</svg>
