<svg width="14" height="14" viewBox="0 0 14 14" fill="none" xmlns="http://www.w3.org/2000/svg">
<path d="M6.54478 4.66637L6.86878 5.42419C6.89074 5.49009 6.95115 5.52853 7.01155 5.53402L7.83527 5.6109C8.011 5.62737 8.0769 5.84154 7.95059 5.95686L7.33006 6.50052C7.28064 6.54445 7.25867 6.61035 7.27514 6.67075L7.45636 7.478C7.4948 7.64823 7.31358 7.78003 7.15982 7.69216L6.45142 7.26932C6.39651 7.23637 6.32512 7.23637 6.27021 7.26932L5.56181 7.69216C5.41354 7.78003 5.22683 7.64823 5.26527 7.478L5.44649 6.67075C5.46296 6.61035 5.441 6.54445 5.39157 6.50052L4.77104 5.95686C4.63924 5.84154 4.71063 5.62737 4.88636 5.6109L5.71008 5.53402C5.77597 5.52853 5.83089 5.49009 5.85835 5.42968L6.18234 4.67186C6.24824 4.50712 6.47339 4.50712 6.54478 4.66637Z" stroke="#F0C932" stroke-width="0.549146" stroke-miterlimit="10" stroke-linecap="round" stroke-linejoin="round"/>
<path d="M10.0963 6.27243C10.1105 4.21009 8.45012 2.52673 6.38778 2.51254C4.32544 2.49834 2.64208 4.1587 2.62789 6.22103C2.61369 8.28337 4.27404 9.96674 6.33638 9.98093C8.39872 9.99512 10.0821 8.33477 10.0963 6.27243Z" stroke="#F0C932" stroke-width="0.549146" stroke-miterlimit="10" stroke-linecap="round" stroke-linejoin="round"/>
<path d="M5.85283 9.94366L4.92478 12.2775L3.7496 10.9321L1.97586 11.0969L3.15103 8.15344" stroke="#F0C932" stroke-width="0.549146" stroke-miterlimit="10" stroke-linecap="round" stroke-linejoin="round"/>
<path d="M6.8633 9.94366L7.79685 12.2775L8.96653 10.9321L10.7458 11.0969L9.5651 8.15344" stroke="#F0C932" stroke-width="0.549146" stroke-miterlimit="10" stroke-linecap="round" stroke-linejoin="round"/>
</svg>
